<svg width="15" height="19" viewBox="0 0 15 19" fill="none" xmlns="http://www.w3.org/2000/svg">
<g clip-path="url(#clip0_2_99)">
<path d="M6.58324 0.651947H8.78984C9.83865 0.651947 10.6971 1.47053 10.7669 2.50645L10.7714 2.64276L10.7714 2.86396H11.8656C13.4464 2.86396 14.7279 4.15141 14.7279 5.73957V16.3613C14.7279 17.4608 13.8407 18.3521 12.7463 18.3521H2.62222C1.52781 18.3521 0.640625 17.4608 0.640625 16.3613V5.73957C0.640625 4.15141 1.92212 2.86396 3.50293 2.86396H4.60117L4.60164 2.64276C4.60164 1.58907 5.41644 0.726585 6.44757 0.65654L6.58324 0.651947ZM10.5491 10.8272H4.82599C4.01735 10.8272 3.35416 11.4528 3.28987 12.2486L3.28476 12.3756V14.1426C3.28476 14.955 3.90751 15.6213 4.69959 15.6859L4.82599 15.691H10.5491C11.3577 15.691 12.0209 15.0654 12.0852 14.2696L12.0903 14.1426V12.3756C12.0903 11.5632 11.4676 10.8969 10.6755 10.8323L10.5491 10.8272ZM4.82599 12.1544H10.5491C10.6533 12.1544 10.7406 12.2272 10.7635 12.3249L10.7693 12.3756V14.1426C10.7693 14.2473 10.6969 14.3351 10.5996 14.358L10.5491 14.3638H4.82599C4.72177 14.3638 4.63445 14.2911 4.61163 14.1934L4.60582 14.1426V12.3756C4.60582 12.2709 4.67824 12.1832 4.77551 12.1602L4.82599 12.1544ZM8.78717 7.28798H6.5854L6.49577 7.29403C6.17337 7.33798 5.92487 7.61562 5.92487 7.95158C5.92487 8.28754 6.17337 8.56518 6.49577 8.60913L6.5854 8.61518H8.78717L8.8768 8.60913C9.19921 8.56518 9.4477 8.28754 9.4477 7.95158C9.4477 7.61562 9.19921 7.33798 8.8768 7.29403L8.78717 7.28798ZM8.78984 1.97915H6.58324C6.24884 1.97915 5.97247 2.2288 5.92874 2.55271L5.92271 2.64276L5.92223 2.86396H9.45037V2.64276C9.45037 2.3068 9.20188 2.02915 8.87947 1.98521L8.78984 1.97915Z" fill="#101010"/>
</g>
<defs>
<clipPath id="clip0_2_99">
<rect width="14.5294" height="19" fill="white" transform="translate(0.470703)"/>
</clipPath>
</defs>
</svg>
