<svg width="27" height="19" viewBox="0 0 27 19" fill="none" xmlns="http://www.w3.org/2000/svg">
<g clip-path="url(#clip0_2_73)">
<path d="M26.2804 5.6334L14.5947 0.297931C14.2156 0.124762 13.8119 0.037384 13.3948 0.037384C12.9776 0.037384 12.574 0.124762 12.1948 0.297931L0.509118 5.6334C0.315965 5.72195 0.191254 5.91497 0.191254 6.12589C0.191254 6.33682 0.315965 6.52984 0.509118 6.61839L12.1948 11.9539C12.5739 12.127 12.9776 12.2148 13.3948 12.2148C13.8119 12.2148 14.2156 12.127 14.5948 11.9539L23.8172 7.74325V11.9833C23.4512 12.0242 23.1658 12.3332 23.1658 12.7065C23.1658 13.0319 23.3828 13.3135 23.6922 13.4032L23.0685 17.4852H25.9401L25.3165 13.4032C25.6258 13.3135 25.8428 13.0319 25.8428 12.7065C25.8428 12.3332 25.5574 12.0242 25.1914 11.9833V7.1157L26.2805 6.61839C26.4736 6.52984 26.5984 6.33682 26.5984 6.12589C26.5984 5.91497 26.4735 5.72195 26.2804 5.6334Z" fill="#101010"/>
<path d="M13.3948 14.1468C12.8147 14.1468 12.2527 14.0244 11.7244 13.7833L6.0087 11.1734V16.373C6.0087 17.5145 9.48627 18.9627 13.3948 18.9627C17.3033 18.9627 20.7809 17.5145 20.7809 16.373V11.1734L15.0649 13.7833C14.5369 14.0244 13.975 14.1468 13.3948 14.1468Z" fill="#101010"/>
</g>
<defs>
<clipPath id="clip0_2_73">
<rect width="26.4754" height="19" fill="white" transform="translate(0.191254)"/>
</clipPath>
</defs>
</svg>
