<svg width="27" height="19" viewBox="0 0 27 19" fill="none" xmlns="http://www.w3.org/2000/svg">
<g clip-path="url(#clip0_2_104)">
<path d="M5.33717 2.65483C5.33717 1.19198 6.50665 0.0122375 7.97779 0.0122375C9.43955 0.0122375 10.6184 1.19198 10.6184 2.65483C10.609 4.12717 9.43017 5.29743 7.97779 5.29743C6.51603 5.29743 5.33717 4.11768 5.33717 2.65483ZM19.9027 13.9888H15.1114V9.70403C15.1114 7.61662 13.2886 5.92933 11.2376 5.92933H4.81522C2.56351 5.92933 0.634548 7.88198 0.635568 9.80605V17.6615C0.632917 18.532 1.24733 18.9866 1.85888 18.9878C2.47196 18.9889 3.08219 18.5343 3.08219 17.6615V10.0101H3.89774V18.9878H11.8493V10.0101H12.6648L12.6731 15.1488C12.6677 16.0393 13.2176 16.4185 13.7862 16.4373H19.9027C21.5708 16.4373 21.5708 13.9888 19.9027 13.9888ZM17.6305 12.1275C19.3629 12.1275 20.258 12.4069 20.6433 12.5782H16.4367V7.18682H17.1123V12.1302L17.5307 12.1275H17.6305ZM21.1485 7.34281C21.1485 8.17487 21.1485 12.3874 21.1485 12.3874C21.1485 12.3874 20.3711 11.7114 17.632 11.7114H17.528C17.528 10.9139 17.528 6.63204 17.528 6.63204C17.528 6.63204 17.6839 6.62582 17.9306 6.62582H17.9313C18.7794 6.62582 20.7064 6.69866 21.1485 7.34281ZM25.2311 12.1275L25.6496 12.1302V7.18682H26.3251V12.5782H22.1185C22.5037 12.4069 23.399 12.1275 25.1312 12.1275H25.2311ZM24.8306 6.62582H24.8313C25.078 6.62582 25.2338 6.63204 25.2338 6.63204C25.2338 6.63204 25.2338 10.9139 25.2338 11.7114H25.1299C22.3908 11.7114 21.6133 12.3874 21.6133 12.3874C21.6133 12.3874 21.6133 8.17487 21.6133 7.34281C22.0555 6.69866 23.9824 6.62582 24.8306 6.62582Z" fill="#101010"/>
</g>
<defs>
<clipPath id="clip0_2_104">
<rect width="25.7059" height="19" fill="white" transform="translate(0.627441)"/>
</clipPath>
</defs>
</svg>
